<svg xmlns="http://www.w3.org/2000/svg" viewBox="0 0 304.25 304.3"><g id="Слой_2" data-name="Слой 2"><g id="Слой_1-2" data-name="Слой 1"><path d="M0,150.91c0-63.09,39.1-116.4,90.72-139A139.34,139.34,0,0,1,136.12.46a175.65,175.65,0,0,1,25.75,0A159.2,159.2,0,0,1,205,9.27,145.46,145.46,0,0,1,258.19,43c17.46,17.1,30.68,36.91,38.45,60.2a147,147,0,0,1,7.17,36.44,159.91,159.91,0,0,1-6.19,58.16c-8.19,26.89-23.35,49.26-44.21,67.91-16.79,15-35.81,26.12-57.49,32.51a153.77,153.77,0,0,1-49.25,6,153.09,153.09,0,0,1-46.43-8.64,147.26,147.26,0,0,1-50.71-31.1c-14.81-13.66-26.94-29.31-35.59-47.56A143.09,143.09,0,0,1,2.27,179.76,165,165,0,0,1,0,150.91Zm150.89,145.9c76.16,2.1,143-62,146.06-138C300.41,73.61,231.37,8.76,156.2,7.1,79.48,5.4,10.88,64.7,7.41,145.65A144.54,144.54,0,0,0,150.89,296.81Z"/><path d="M154,92.23c18.34,0,36.69,0,55,0a49.3,49.3,0,0,1,9.89.6,19.17,19.17,0,0,1,15,18.33c.16,7.23.11,14.46.11,21.7,0,19.94-.22,39.89,0,59.83.11,8.09-7.2,17.91-16.93,18.75-5.91.51-11.89.36-17.84.39-9.75,0-19.5,0-29.25,0l-16.91,0q-30.09,0-60.19,0c-5.39,0-10.3-1.3-14.32-5C74.39,202.83,72,198.12,72,192.1c.11-22,0-44,0-65.95,0-4.83.19-9.68,0-14.5C71.65,102.84,78.5,95.36,86,93.32a38.29,38.29,0,0,1,10.22-1.06H154ZM79.3,106.55c-.25,3.26-.64,6.22-.68,9.2-.1,7.07-.07,14.14-.05,21.21q0,24.53.13,49a51.4,51.4,0,0,0,.37,7.76c.78,5,3.53,8.63,8.55,10a23.92,23.92,0,0,0,6.26.77q32.67.06,65.34,0,23.37,0,46.76-.1c3.91,0,7.81.07,11.61-1.26,4.45-1.55,8.46-6.82,8.46-11.48q-.06-39.15-.14-78.3a19.51,19.51,0,0,0-1.44-6.26l-1.29.87q-12.27,8.79-24.53,17.58-21.74,15.53-43.48,31a5.41,5.41,0,0,1-7-.06c-7-5.08-14-10.23-21-15.29-12-8.62-24-17.17-36-25.8C87.23,112.66,83.43,109.67,79.3,106.55ZM85.38,101l-.21.46a12.62,12.62,0,0,0,1.67,1.75c7.07,5.07,14.2,10.07,21.25,15.16q20.44,14.76,40.84,29.58a4.18,4.18,0,0,0,5.5,0l58.91-42.59c1.39-1,2.75-2.06,4.1-3.12a1,1,0,0,0,.38-.76.9.9,0,0,0-.63-.55,35.71,35.71,0,0,0-5.32-.69q-41.35-.06-82.72,0c-12.66,0-25.33,0-38,0A47.4,47.4,0,0,0,85.38,101Z"/></g></g></svg>