<svg xmlns="http://www.w3.org/2000/svg" viewBox="0 0 304.36 304.41"><g id="Слой_2" data-name="Слой 2"><g id="Слой_1-2" data-name="Слой 1"><path fill="#be8d6d" d="M146.9,0c18.35.09,35.1,2.15,51.44,7.1a140.61,140.61,0,0,1,47.9,25.27c18.85,15.19,33.93,33.42,44.31,55.39A141.09,141.09,0,0,1,303,130.61c3,23.47,1.29,46.57-5.89,69.17a144.63,144.63,0,0,1-34.37,57.06c-16,16.6-34.49,29.49-56.07,37.81a147.15,147.15,0,0,1-34.78,8.58,156.09,156.09,0,0,1-28.83.88Q80.57,300.18,38.7,253.62A146.53,146.53,0,0,1,.46,164.52a163.8,163.8,0,0,1,.6-31A148.26,148.26,0,0,1,17.45,80.77C31.92,53.46,52.58,32.18,79.68,17.26A138.69,138.69,0,0,1,127.55,1.32,124.77,124.77,0,0,1,146.9,0Zm150,152.22C298.11,72.33,230,7.3,153.09,7.12,74.59,6.94,7.37,70.13,7.33,151.87,7.3,233.08,72.82,295.78,151,297,228.47,298.17,298.09,232.17,296.92,152.24Z"/><path fill="#be8d6d" d="M158.26,157.34v70.73H128.67V157.45H114.79V132.17h13.8c0-.57,0-1,0-1.35.07-5.55,0-11.11.27-16.65.26-6.07,1.64-11.87,5.14-17a23.56,23.56,0,0,1,19.25-10.73c8.62-.34,17.26-.17,25.89-.22.27,0,.54,0,.9.06v24.27H166.68c-.84,0-1.68,0-2.51.06-3.78.31-5.7,2-5.87,5.8-.2,4.42-.11,8.86-.15,13.29,0,.71,0,1.43,0,2.28h22.6c-.88,8.52-1.74,16.88-2.61,25.33Z"/></g></g></svg>