<svg xmlns="http://www.w3.org/2000/svg" viewBox="0 0 1719.35 141.98"><defs><style>.cls-1{fill:#000100;}</style></defs><g id="Слой_2" data-name="Слой 2"><g id="Слой_1-2" data-name="Слой 1"><g id="Levanona_Design" data-name="Levanona Design"><path class="cls-1" d="M77,129.06,76,128a45.33,45.33,0,0,1-4.15,1.87c-6.39,2.49-11.57,2.78-20.28,3.2-8.27.4-14.49.67-17.79.81H18.68V13.81a11.94,11.94,0,0,1,2.5-8.32,10.84,10.84,0,0,1,2.87-2.42V2.12H0v1A12,12,0,0,1,2.73,5.78a12.76,12.76,0,0,1,2.41,8V127.58a12.76,12.76,0,0,1-2.41,8A12,12,0,0,1,0,138.25v1H72.13Z"/><path class="cls-1" d="M184.49,128a46.1,46.1,0,0,1-4.75,2.12c-5.27,2-9.63,2.46-18.12,3-6,.39-11.46.65-16.28.82H130.27V60.17h18.37c3.19,0,6.39.32,9.56.6a21.31,21.31,0,0,1,8.11,2.06,14.54,14.54,0,0,1,1.55.94h.6l3.91-8.41h-42.1V7.54s20.55,0,27.41,0c4.37,0,8.12.22,11.1.46a19.43,19.43,0,0,1,7.8,1.8,16.24,16.24,0,0,1,3.36,2.25h.87L185,3.27V2.12H111.59V3.2a11.93,11.93,0,0,1,2.73,2.62,12.71,12.71,0,0,1,2.41,8V127.63a12.71,12.71,0,0,1-2.41,8,11.93,11.93,0,0,1-2.73,2.62v1l69.16,0,4.94-10.35Z"/><path class="cls-1" d="M1269.77,128a45.13,45.13,0,0,1-4.75,2.12c-5.27,2-9.63,2.46-18.12,3-6,.39-11.45.65-16.28.82h-15.07V60.17h18.37c3.19,0,6.39.32,9.56.6a21.31,21.31,0,0,1,8.11,2.06,13.61,13.61,0,0,1,1.55.94h.6l3.91-8.41h-42.1V7.54s20.55,0,27.41,0c4.37,0,8.12.22,11.1.46s5.29.54,7.8,1.8a16.24,16.24,0,0,1,3.36,2.25h.87l4.21-8.78V2.12h-73.43V3.2a11.93,11.93,0,0,1,2.73,2.62,12.73,12.73,0,0,1,2.41,8V127.63a12.71,12.71,0,0,1-2.41,8,11.72,11.72,0,0,1-2.73,2.62v1l69.16-.05,4.94-10.35Z"/><path class="cls-1" d="M261.58,139.28h4.9l45.7-128.62a17.42,17.42,0,0,1,3.15-4.87A17,17,0,0,1,318.56,3v-.9H302V3a7.27,7.27,0,0,1,2.73,2.71,7.18,7.18,0,0,1,.92,2.8,7.4,7.4,0,0,1-.06,2q-7.17,20.42-14.35,40.8-12,33.93-24,67.86L229.51,11.34a8.48,8.48,0,0,1-.21-2.58,7.35,7.35,0,0,1,1.15-3.5A6.94,6.94,0,0,1,232.82,3V2.12H208.48v1a14.45,14.45,0,0,1,6.06,7.11Z"/><path class="cls-1" d="M428.39,136.68a21.83,21.83,0,0,1-5.34-8.66L373.85,2.12H358.57V3a22.07,22.07,0,0,1,2.54,2.33,23.43,23.43,0,0,1,4.44,6.86L371,26.55l-40.14,105a16,16,0,0,1-2.56,3.94,15.62,15.62,0,0,1-3.4,2.91v.87H341.4v-.87a7.35,7.35,0,0,1-3.14-3.62,7.65,7.65,0,0,1-.43-3,8,8,0,0,1,.42-2.13q8.38-22.09,16.75-44.2l38.24,0,16.56,43.76a7.43,7.43,0,0,1-3.07,9.31v.82h23.73v-.82A20.3,20.3,0,0,1,428.39,136.68ZM356.82,80.62q8.67-22.85,17.33-45.71,8.64,22.86,17.29,45.71Z"/><path class="cls-1" d="M799.18,139.28h4.91l45.7-128.62a17.73,17.73,0,0,1,3.14-4.87A17.32,17.32,0,0,1,856.17,3v-.9H839.64V3a7.27,7.27,0,0,1,2.73,2.71,7.24,7.24,0,0,1,.86,4.75q-7.17,20.42-14.36,40.8-12,33.93-24,67.86L767.12,11.34a8.14,8.14,0,0,1-.21-2.58,7.31,7.31,0,0,1,1.14-3.5A7.12,7.12,0,0,1,770.42,3V2.12H746.08v1a14.17,14.17,0,0,1,3,2.41,14.62,14.62,0,0,1,3,4.7Z"/><path class="cls-1" d="M966,136.68a21.83,21.83,0,0,1-5.34-8.66q-24.6-63-49.21-125.9H896.18V3a23,23,0,0,1,2.54,2.33,23.43,23.43,0,0,1,4.44,6.86l5.43,14.36-40.14,105a16.05,16.05,0,0,1-6,6.85v.87H879v-.87a7.3,7.3,0,0,1-3.14-3.62,7.65,7.65,0,0,1-.43-3,8,8,0,0,1,.42-2.13l16.75-44.2,38.24,0,16.56,43.76a7.62,7.62,0,0,1,.13,5.46,7.52,7.52,0,0,1-3.2,3.85v.82h23.73v-.82A20.3,20.3,0,0,1,966,136.68ZM894.43,80.63q8.67-22.86,17.32-45.72l17.3,45.72Z"/><path class="cls-1" d="M540.25,2.12V3A10.81,10.81,0,0,1,543,5.2a11.29,11.29,0,0,1,2.63,7.27q0,51.56,0,103.1v0L472.89,2.12H456V3a34.44,34.44,0,0,1,2.89,2.5,34.84,34.84,0,0,1,5.24,6.42q1.66,2.58,3.31,5.16V128.93a11.28,11.28,0,0,1-2.62,7.26,10.27,10.27,0,0,1-2.8,2.25v.84h17.44v-.88a10,10,0,0,1-2.82-2.2,12.26,12.26,0,0,1-2.58-7.27l0-101.57L547.64,142h4.65V12.47a12.26,12.26,0,0,1,2.58-7.27A9.53,9.53,0,0,1,557.69,3V2.12Z"/><path class="cls-1" d="M1701.9,2.12V3a10.67,10.67,0,0,1,2.8,2.25,11.2,11.2,0,0,1,2.62,7.27q0,51.56,0,103.1l0,0L1634.54,2.12h-16.85V3a36.11,36.11,0,0,1,2.89,2.5,35.26,35.26,0,0,1,5.24,6.42l3.31,5.16V128.93a11.25,11.25,0,0,1-2.63,7.26,10.25,10.25,0,0,1-2.79,2.25v.84h17.44v-.88a9.83,9.83,0,0,1-2.82-2.2,12.26,12.26,0,0,1-2.58-7.27l0-101.57L1709.3,142H1714V12.47a12.23,12.23,0,0,1,2.57-7.27,9.68,9.68,0,0,1,2.83-2.2V2.12Z"/><path class="cls-1" d="M659.21,0c-39.63,0-71.75,31.78-71.75,71s32.12,71,71.75,71S731,110.2,731,71,698.83,0,659.21,0Zm0,136c-31.15,0-56.4-29.16-56.4-65.13s25.25-65.12,56.4-65.12,56.4,29.16,56.4,65.12S690.36,136,659.21,136Z"/><path class="cls-1" d="M1150.05,25.22c-20-22.81-47.87-23.12-52.12-23.1h-57.47V3a10.65,10.65,0,0,1,2.85,2.36,11.92,11.92,0,0,1,2.57,8.44V127.6a11.91,11.91,0,0,1-2.57,8.43,10.65,10.65,0,0,1-2.85,2.36v.89h57.47c4.25,0,32.11-.29,52.11-23.1,16.27-18.56,16.79-40,16.76-45.48h0C1166.83,65.19,1166.31,43.78,1150.05,25.22ZM1130,122.73c-12.67,9.68-26.36,11-32.3,11.14h-29.59c-.8,0-4.22,0-6.37-2.48a9.65,9.65,0,0,1-1.92-4.28,13.25,13.25,0,0,1-.35-3.73V7.55h34.9a53.54,53.54,0,0,1,23.63,5.2c30.56,14.86,33.66,55,33.84,58h0C1152,73.41,1153.81,104.53,1130,122.73Z"/><path class="cls-1" d="M1373.85,101.66c-1.95-11.51-9.8-18.51-19.32-27-9.87-8.8-22.33-16.67-32.65-25.13a31,31,0,0,1-10-13.43c-.67-1.85-4.44-12.33,1.4-21.26,5.34-8.17,15.52-9.28,17.7-9.51,18.17-2,30.67,15.55,31.44,16.65l.52,0,6.91-11.16v-.6a13.44,13.44,0,0,1-2.8-.51c-3.42-1.29-4.85-2.74-8.2-4.49,0,0-1.55-.8-4.66-2C1343.7-.81,1332,.16,1332,.16c-6.17.52-14.45,1.2-22,7.31a30.68,30.68,0,0,0-7.34,8.62,33.49,33.49,0,0,0-3.66,22.3c2.52,13.85,13.67,23,24.21,31.17,9.79,7.59,20.21,14.5,29,23.25,7.58,7.51,12.89,20.7,7.69,31-4.53,9-14.94,11.35-17.46,11.93-13.5,3.08-24.56-4.85-26.47-6.22a57.14,57.14,0,0,1-9.44-9.08,69.59,69.59,0,0,1-6.48-8.84h-2.11v21.05h1.84a1.52,1.52,0,0,1,.57-.46,2.51,2.51,0,0,1,1.72.16,59.26,59.26,0,0,0,12.08,6,61.1,61.1,0,0,0,22.37,3.49,47.76,47.76,0,0,0,14.28-2.2,45.55,45.55,0,0,0,10.63-5,35,35,0,0,0,8.6-10.25C1370.51,123.52,1375.86,113.49,1373.85,101.66Z"/><path class="cls-1" d="M1428.14,3.07V2.13h-24.05v1a11.93,11.93,0,0,1,2.73,2.62,12.78,12.78,0,0,1,2.41,8V127.59a12.78,12.78,0,0,1-2.41,8,11.93,11.93,0,0,1-2.73,2.62v1h24.05v-.94a10.71,10.71,0,0,1-2.87-2.43,11.93,11.93,0,0,1-2.5-8.32V13.82a11.93,11.93,0,0,1,2.5-8.32A10.71,10.71,0,0,1,1428.14,3.07Z"/><path class="cls-1" d="M1566.48,73.39v1.14a8.57,8.57,0,0,1,2.81,1.9c2.75,2.79,2.59,6.7,2.59,10.33v39.75c-5,3-18.94,7.5-27.52,8.52-18.27,2.18-39.37-.81-52.87-14.48-5.71-5.77-8.75-12.07-10.87-16.47a71.51,71.51,0,0,1-5.41-15.39,72.77,72.77,0,0,1-1.66-18,75,75,0,0,1,4.54-23.8,72.22,72.22,0,0,1,11.2-19.72c3.18-4,14-16.44,32.55-20.21A54.11,54.11,0,0,1,1550.77,9a52,52,0,0,1,22.41,16.23h.88l7.23-11.79-.42-.61a11.93,11.93,0,0,1-2.91-.32,11.4,11.4,0,0,1-3.68-1.65,59.48,59.48,0,0,0-9-4.81,68.63,68.63,0,0,0-13.71-4A92.33,92.33,0,0,0,1530.94,0a85.12,85.12,0,0,0-21.44,3A74.17,74.17,0,0,0,1496,8.28a72.2,72.2,0,0,0-28.4,26.55A72.2,72.2,0,0,0,1458,70.7a72.66,72.66,0,0,0,22.25,52.05,68.77,68.77,0,0,0,15.23,11,71.08,71.08,0,0,0,14.08,5.53,80.88,80.88,0,0,0,21.3,2.7,90,90,0,0,0,11.41-.8,97.25,97.25,0,0,0,12.7-2.59c2.65-.69,4.33-1.23,10-3.08l8.87-2.91a13.7,13.7,0,0,1,7.1.19,12.93,12.93,0,0,1,1.83.71h2.56V88.11c0-4.09-.22-8.31,2.5-11.71,1-1.23,2-1.36,2.86-1.88V73.39Z"/></g></g></g></svg>